<svg t="1687164242990" class="icon" viewBox="0 0 1024 1024" version="1.1" xmlns="http://www.w3.org/2000/svg" p-id="19644" width="200" height="200"><path d="M736 1019.5c-3.6-0.8-10.2-3.3-14.8-5.5-7.3-3.6-11.7-7.2-37-30.3-15.8-14.4-108.2-98.7-205.3-187.3S301.8 635 301.2 634.6c-0.7-0.4-37.1 26.5-90.4 67-49.1 37.3-91.3 68.7-93.8 70-7.1 3.5-13.4 4.7-21.6 4.1-11.1-0.8-17.6-4.3-31.4-16.8-42.3-38.2-54.1-49.3-56.8-53.6-7-11.3-8.6-25.6-3.9-37.1 1.4-3.5 3.6-7.8 4.9-9.8 1.2-1.9 37.4-35.5 80.3-74.6 42.9-39.2 78-71.5 78-71.8s-35.1-32.6-78-71.8c-42.9-39.1-79.1-72.7-80.3-74.6-9.9-14.6-10-33.9-0.3-47.9 3.2-4.7 61.3-58.1 68.4-63 5.4-3.7 15.6-6.7 22.6-6.7 6.6 0 15 2.2 20.1 5.3 1.9 1.2 43.4 32.4 92.3 69.5 60.1 45.6 89.1 67 90 66.5 0.8-0.4 93-84.5 205.1-186.8C631.1 88.6 712.5 15 716.2 12.8c16.7-10.2 36.1-12.4 53.9-6 8.6 3.1 219.8 105.1 225.7 108.9 11.7 7.8 22 22.6 25.9 37.3 1.7 6.1 1.8 26.1 1.8 359 0 333.4-0.1 352.9-1.8 359-4 15-14.1 29.5-25.9 37.3-7.6 5-218.9 106.5-227.8 109.4-9.5 3.1-22.8 3.9-32 1.8z m33-507.6c0-143.7-0.4-232.9-0.9-232.7-1.5 0.5-307 232.2-307 232.8 0 0.7 306.2 232.9 307.2 232.9 0.4 0.1 0.7-104.8 0.7-233z" fill="#007BC3" p-id="19645"></path></svg>